# xmcd
#
# Track frame offsets:
# 150
# 12647
# 26472
# 39407
# 58966
# 73282
# 87000
# 104744
# 124502
# 139673
# 151452
# 173979
#
# Disc length: 2376 seconds
#
#
# Revision: 0
# Processed by: cddbd v1.5.1PL2 Copyright (c) Steve Scherf et al.
# Submitted via: FreeRIP 2.941 
#
DISCID=a709460c
DTITLE=Kacey Jones - Every Man I Love Is Either Married, Gay, Or Dead
DYEAR=2000
DGENRE=Country
TTITLE0=Every Man I Love Is Either Married, Gay, Or Dead
TTITLE1=You're The Reason Our Kids Are ugly
TTITLE2=Till Dale Earnhardt Wins Cup #8
TTITLE3=Christmas Card From A Hooker In Minneapolis
TTITLE4=Chicken Or Dumplin's
TTITLE5=Love Handle
TTITLE6=Geography
TTITLE7=Collector Of People
TTITLE8=I Didn't Feel A Thing
TTITLE9=But I'm Not Bitter (Organic Jailhouse Version)
TTITLE10=Over The Rainbow
TTITLE11=Peanut Sonata
EXTD=
EXTT0=
EXTT1=
EXTT2=
EXTT3=
EXTT4=
EXTT5=
EXTT6=
EXTT7=
EXTT8=
EXTT9=
EXTT10=
EXTT11=
PLAYORDER=
